# xmcd CD database file
#
# Track frame offsets:
#	187
#	15515
#	34467
#	50555
#	68407
#	80925
#
# Disc length: 1308 seconds
#
# Revision: 1
# Processed by: cddbd v1.5.1PL0 Copyright (c) Steve Scherf et al.
# Submitted via: CDex 1.51
#
DISCID=4a051a06
DTITLE=成田美名子 - CIPHER THE MUSIC
DYEAR=1989
DGENRE=Anime
TTITLE0=AGAINST ALL ODDS／Wag's
TTITLE1=LET'S HEAR IT FOR THE BOY／Wag's
TTITLE2=FOOTLOOSE／Wag's
TTITLE3=KAMIKAZE／Thompson Twins
TTITLE4=I DON'T LIKE／Mescaline Drive
TTITLE5=LIVING IN THE DARK／Army Call Up Test
EXTD=YEAR: 1989
EXTT0=
EXTT1=
EXTT2=
EXTT3=
EXTT4=
EXTT5=
PLAYORDER=
